<svg xmlns="http://www.w3.org/2000/svg" width="42.667" height="42.667" viewBox="0 0 32 32"  xmlns:v="https://vecta.io/nano"><path d="M16 .668C7.16.668 0 7.707 0 16.391c0 6.945 4.586 12.84 10.941 14.918.797.145 1.094-.34 1.094-.758l-.023-2.672c-4.449.945-5.387-2.109-5.387-2.109-.73-1.816-1.781-2.301-1.781-2.301-1.449-.977.113-.957.113-.957 1.605.109 2.449 1.621 2.449 1.621 1.426 2.406 3.746 1.711 4.66 1.309.145-1.016.555-1.711 1.012-2.102-3.551-.395-7.285-1.746-7.285-7.77 0-1.719.617-3.121 1.645-4.219-.18-.398-.719-1.996.141-4.164 0 0 1.34-.418 4.402 1.613 1.277-.348 2.637-.523 4-.531 1.359.008 2.719.184 4 .531 3.039-2.031 4.379-1.613 4.379-1.613.859 2.168.32 3.766.16 4.164 1.02 1.098 1.641 2.5 1.641 4.219 0 6.039-3.742 7.367-7.301 7.754.559.473 1.078 1.438 1.078 2.91l-.02 4.305c0 .414.281.906 1.102.746C27.422 29.223 32 23.328 32 16.391 32 7.707 24.836.668 16 .668zm0 0" fill="rgb(12.941176%,12.941176%,12.941176%)"/></svg>