<?xml version="1.0" encoding="UTF-8"?>
<svg xmlns="http://www.w3.org/2000/svg" xmlns:xlink="http://www.w3.org/1999/xlink" width="32pt" height="32pt" viewBox="0 0 32 32" version="1.1">
<g id="surface1">
<path style=" stroke:none;fill-rule:nonzero;fill:rgb(12.941176%,12.941176%,12.941176%);fill-opacity:1;" d="M 16 0.667969 C 7.160156 0.667969 0 7.707031 0 16.390625 C 0 23.335938 4.585938 29.230469 10.941406 31.308594 C 11.738281 31.453125 12.035156 30.96875 12.035156 30.550781 C 12.035156 30.175781 12.019531 29.1875 12.011719 27.878906 C 7.5625 28.824219 6.625 25.769531 6.625 25.769531 C 5.894531 23.953125 4.84375 23.46875 4.84375 23.46875 C 3.394531 22.492188 4.957031 22.511719 4.957031 22.511719 C 6.5625 22.621094 7.40625 24.132812 7.40625 24.132812 C 8.832031 26.539062 11.152344 25.84375 12.066406 25.441406 C 12.210938 24.425781 12.621094 23.730469 13.078125 23.339844 C 9.527344 22.945312 5.792969 21.59375 5.792969 15.570312 C 5.792969 13.851562 6.410156 12.449219 7.4375 11.351562 C 7.257812 10.953125 6.71875 9.355469 7.578125 7.1875 C 7.578125 7.1875 8.917969 6.769531 11.980469 8.800781 C 13.257812 8.453125 14.617188 8.277344 15.980469 8.269531 C 17.339844 8.277344 18.699219 8.453125 19.980469 8.800781 C 23.019531 6.769531 24.359375 7.1875 24.359375 7.1875 C 25.21875 9.355469 24.679688 10.953125 24.519531 11.351562 C 25.539062 12.449219 26.160156 13.851562 26.160156 15.570312 C 26.160156 21.609375 22.417969 22.9375 18.859375 23.324219 C 19.417969 23.796875 19.9375 24.761719 19.9375 26.234375 C 19.9375 28.339844 19.917969 30.03125 19.917969 30.539062 C 19.917969 30.953125 20.199219 31.445312 21.019531 31.285156 C 27.421875 29.222656 32 23.328125 32 16.390625 C 32 7.707031 24.835938 0.667969 16 0.667969 Z M 16 0.667969 "/>
</g>
</svg>
