<?xml version="1.0" standalone="no"?>
<!DOCTYPE svg PUBLIC "-//W3C//DTD SVG 1.0//EN" "http://www.w3.org/TR/2001/REC-SVG-20010904/DTD/svg10.dtd">
<svg xmlns="http://www.w3.org/2000/svg" xmlns:xlink="http://www.w3.org/1999/xlink" id="body_1" width="64" height="48">

<g transform="matrix(0.0625 0 0 0.0625 0 0)">
	<g transform="matrix(0.0768 0 0 -0.0768 128 392.448)">
	</g>
    <path transform="matrix(0.0768 0 0 -0.0768 128 392.448)"  d="M4687.6 340.7C 4185.3 -1061.9 3738.2 -2311.4 3693.3 -2436L3693.3 -2436L3611.6 -2666.7L3924 -2666.7L4234.3 -2666.7L5222.5 83.5C 5765.6 1596.4 6212.7 2845.9 6218.8 2860.2C 6227 2880.6 6163.7 2886.7 5914.6 2886.7L5914.6 2886.7L5600.2 2886.7L4687.6 340.7z" stroke="none" fill="#000000" fill-rule="nonzero" />
	<g transform="matrix(0.0768 0 0 -0.0768 128 392.448)">
	</g>
    <path transform="matrix(0.0768 0 0 -0.0768 128 392.448)"  d="M1661.9 1471.8C 888.1 1030.8 218.4 651 177.6 626.5L177.6 626.5L100 581.6L100 114.1L100 -355.5L1590.4 -1204.9C 2411.2 -1672.4 3086.9 -2054.2 3091 -2054.2C 3097.1 -2054.2 3101.2 -1807.2 3101.2 -1507L3101.2 -1507L3101.2 -959.9L2058 -416.7L1012.6 126.3L2058 649L3101.3 1171.7L3101.3 1723C 3101.3 2027.2 3095.2 2274.3 3087 2272.2C 3076.7 2272.1 2437.7 1910.8 1661.9 1471.8z" stroke="none" fill="#000000" fill-rule="nonzero" />
	<g transform="matrix(0.0768 0 0 -0.0768 128 392.448)">
	</g>
    <path transform="matrix(0.0768 0 0 -0.0768 128 392.448)"  d="M6902.8 1729L6908.9 1181.8L7776.6 736.7001C 8254.4 491.7001 8721.9 252.8001 8813.8 203.8L8813.8 203.8L8985.3 118L7942 -420.8L6898.7 -959.8L6898.7 -1507C 6898.7 -1807.1 6902.8 -2054.2 6908.9 -2054.2C 6915 -2054.2 7590.8 -1670.4 8409.5 -1202.8L8409.5 -1202.8L9900 -351.4L9895.9 118.2L9889.801 587.8L9634.601 732.8C 8781.2 1220.8 6917.101 2274.3 6909 2274.3C 6902.8 2274.2 6900.8 2029.2 6902.8 1729z" stroke="none" fill="#000000" fill-rule="nonzero" />
</g>
</svg>