<svg xmlns="http://www.w3.org/2000/svg" width="64" height="48"  fill="#fff" xmlns:v="https://vecta.io/nano"><path d="M30.5 22.893l-4.773 13.328-.392 1.107h2.989l9.526-26.529c.039-.098-.264-.127-1.46-.127h0-1.509L30.5 22.893zm-14.523-5.43L8.48 21.736v4.498l7.154 4.077 7.203 4.077c.029 0 .049-1.186.049-2.627h0v-2.626L12.86 23.922l10.026-5.018v-2.646l-.069-2.636c-.049 0-3.117 1.735-6.84 3.842zm25.156-1.234l.029 2.627 9.144 4.694.823.412-10.016 5.173v2.627l.049 2.627c.029 0 3.273-1.842 7.203-4.087h0l7.154-4.087-.02-2.254-.029-2.254-1.225-.696-13.083-7.399c-.03 0-.039 1.176-.03 2.617z"/></svg>