<?xml version="1.0" standalone="no"?>
<!DOCTYPE svg PUBLIC "-//W3C//DTD SVG 1.0//EN" "http://www.w3.org/TR/2001/REC-SVG-20010904/DTD/svg10.dtd">
<svg xmlns="http://www.w3.org/2000/svg" xmlns:xlink="http://www.w3.org/1999/xlink" id="body_1" width="64" height="48">

<g transform="matrix(0.0625 0 0 0.0625 0 0)">
	<g transform="matrix(2.250002 0 0 2.250002 128 0)">
	</g>
    <path transform="matrix(2.250002 0 0 2.250002 128 0)"  d="M170.667 170.667C 217.814 170.667 256 132.374 256 85.33401C 256 38.187 217.813 0 170.667 0C 123.521 0 85.333 38.187 85.333 85.333C 85.333 132.373 123.52 170.667 170.667 170.667z" stroke="none" fill="#FFFFFF" fill-rule="nonzero" />
	<g transform="matrix(2.250002 0 0 2.250002 128 0)">
	</g>
    <path transform="matrix(2.250002 0 0 2.250002 128 0)"  d="M170.667 213.333C 113.813 213.333 0 241.813 0 298.667L0 298.667L0 341.334L341.333 341.334L341.333 298.667C 341.333 241.813 227.52 213.333 170.667 213.333z" stroke="none" fill="#FFFFFF" fill-rule="nonzero" />
</g>
</svg>
